<svg xmlns="http://www.w3.org/2000/svg" xmlns:xlink="http://www.w3.org/1999/xlink" width="134.226" height="102.634" viewBox="0 0 134.226 102.634">
  <defs>
    <filter id="Path_136" x="71.969" y="34.649" width="62.257" height="51.571" filterUnits="userSpaceOnUse">
      <feOffset dy="3" input="SourceAlpha"/>
      <feGaussianBlur stdDeviation="3" result="blur"/>
      <feFlood flood-opacity="0.161"/>
      <feComposite operator="in" in2="blur"/>
      <feComposite in="SourceGraphic"/>
    </filter>
    <filter id="Path_142" x="0" y="34.649" width="62.257" height="51.571" filterUnits="userSpaceOnUse">
      <feOffset dy="3" input="SourceAlpha"/>
      <feGaussianBlur stdDeviation="3" result="blur-2"/>
      <feFlood flood-opacity="0.161"/>
      <feComposite operator="in" in2="blur-2"/>
      <feComposite in="SourceGraphic"/>
    </filter>
    <filter id="Path_148" x="29.819" y="43.53" width="74.588" height="59.104" filterUnits="userSpaceOnUse">
      <feOffset dy="3" input="SourceAlpha"/>
      <feGaussianBlur stdDeviation="3" result="blur-3"/>
      <feFlood flood-opacity="0.161"/>
      <feComposite operator="in" in2="blur-3"/>
      <feComposite in="SourceGraphic"/>
    </filter>
  </defs>
  <g id="subscribers" transform="translate(5.113 -16.183)">
    <path id="Path_134" data-name="Path 134" d="M109.71,60.338a15.885,15.885,0,0,0,6.648-9.379,2.537,2.537,0,0,0,.366.051c1.8,0,3.213-1.812,3.213-4.124a5.274,5.274,0,0,0-.212-1.465v-9.26a16,16,0,0,0-15.978-15.978h-5.5a15.834,15.834,0,0,0-13.569,7.585,19.293,19.293,0,0,0-15.32-7.585H62.635a19.3,19.3,0,0,0-15.32,7.585,15.834,15.834,0,0,0-13.568-7.585H28.252A16,16,0,0,0,12.274,36.161v9.26a5.274,5.274,0,0,0-.212,1.465c0,2.312,1.411,4.124,3.213,4.124a2.4,2.4,0,0,0,.366-.051,15.885,15.885,0,0,0,6.648,9.379,20.094,20.094,0,0,0-15.4,19.5V92.769A2.637,2.637,0,0,0,9.52,95.4H36.7v13.415a3,3,0,0,0,3,3H92.293a3,3,0,0,0,3-3V95.4h27.185a2.637,2.637,0,0,0,2.634-2.634V79.838a20.093,20.093,0,0,0-15.4-19.5ZM44.081,56.019a3.338,3.338,0,0,0,2.67,1.454,2.8,2.8,0,0,0,.618-.076,19.216,19.216,0,0,0,8.529,11.8,24.164,24.164,0,0,0-3.306.966,20.149,20.149,0,0,0-12.868-9.84,16,16,0,0,0,4.357-4.3ZM76.1,69.2a19.216,19.216,0,0,0,8.53-11.8,2.8,2.8,0,0,0,.618.076,3.338,3.338,0,0,0,2.67-1.454,16.008,16.008,0,0,0,4.356,4.3,20.149,20.149,0,0,0-12.868,9.84A24.159,24.159,0,0,0,76.1,69.2Z" fill="none"/>
    <path id="Path_135" data-name="Path 135" d="M99.748,17.183h-5.5a14.963,14.963,0,0,0-13.464,8.448,18.211,18.211,0,0,1,2.868,9.051,15.132,15.132,0,0,0,3.821-1.513,11.147,11.147,0,0,0,3.694-3.989,21.482,21.482,0,0,0,9.205,5.358,38.868,38.868,0,0,0,11.473,1.281v4.2a1.671,1.671,0,0,1,.874-.255,2.311,2.311,0,0,1,2,1.81V32.16A14.977,14.977,0,0,0,99.748,17.183Z" fill="#fa759e"/>
    <g transform="matrix(1, 0, 0, 1, -5.11, 16.18)" filter="url(#Path_136)">
      <path id="Path_136-2" data-name="Path 136" d="M102.675,56.832a14.84,14.84,0,0,1-11.35,0,19.094,19.094,0,0,0-15.469,10.58A23.353,23.353,0,0,1,90.294,88.988V90.4h28.185a1.634,1.634,0,0,0,1.634-1.634V75.838a19.083,19.083,0,0,0-17.438-19.006Z" transform="translate(5.11 -16.18)" fill="#ffd7e5"/>
    </g>
    <path id="Path_137" data-name="Path 137" d="M97,57.96a14.8,14.8,0,0,1-5.7-1.137,19.024,19.024,0,0,0-4.589.982,10.3,10.3,0,0,0,20.282-.1,19.109,19.109,0,0,0-4.305-.882A14.784,14.784,0,0,1,97,57.96Z" fill="#fa759e"/>
    <path id="Path_138" data-name="Path 138" d="M97,57.96a14.814,14.814,0,0,1-5.689-1.133c-.423.037-.844.081-1.258.145a6.872,6.872,0,0,0,13.6-.039c-.32-.044-.645-.073-.97-.1A14.8,14.8,0,0,1,97,57.96Z" fill="#fff"/>
    <path id="Path_139" data-name="Path 139" d="M112.724,39.762a1.676,1.676,0,0,0-.874.255V43.11a14.949,14.949,0,0,1-.211,2.484,1.736,1.736,0,0,0,1.084.416c1.222,0,2.213-1.4,2.213-3.124S113.946,39.762,112.724,39.762Z" fill="#fff"/>
    <path id="Path_140" data-name="Path 140" d="M100.378,34.538a21.482,21.482,0,0,1-9.205-5.358,11.15,11.15,0,0,1-3.694,3.989,15.109,15.109,0,0,1-3.821,1.513c.013.279.042.554.042.836v11.52h0a5.136,5.136,0,0,1,.26,1.611,5.205,5.205,0,0,1-.159,1.244A14.843,14.843,0,0,0,111.85,43.11V35.819a38.863,38.863,0,0,1-11.472-1.281Z" fill="#fff"/>
    <path id="Path_141" data-name="Path 141" d="M40.3,35.518a18.224,18.224,0,0,1,2.91-9.887,14.963,14.963,0,0,0-13.464-8.448H24.252A14.978,14.978,0,0,0,9.274,32.16v9.411a2.312,2.312,0,0,1,2-1.81,1.676,1.676,0,0,1,.874.255V35a16.812,16.812,0,0,0,5.329-1.835,11.147,11.147,0,0,0,3.694-3.989,21.482,21.482,0,0,0,9.2,5.358A36.9,36.9,0,0,0,40.3,35.844v-.326Z" fill="#fa759e"/>
    <g transform="matrix(1, 0, 0, 1, -5.11, 16.18)" filter="url(#Path_142)">
      <path id="Path_142-2" data-name="Path 142" d="M33.706,88.988A23.353,23.353,0,0,1,48.144,67.412a19.092,19.092,0,0,0-15.469-10.58,14.84,14.84,0,0,1-11.35,0A19.083,19.083,0,0,0,3.887,75.838V88.769A1.635,1.635,0,0,0,5.521,90.4H33.706Z" transform="translate(5.11 -16.18)" fill="#ffd7e5"/>
    </g>
    <path id="Path_143" data-name="Path 143" d="M27,57.96a14.8,14.8,0,0,1-5.7-1.137,19.024,19.024,0,0,0-4.589.982A10.3,10.3,0,0,0,37,57.707a19.109,19.109,0,0,0-4.305-.882A14.784,14.784,0,0,1,27,57.96Z" fill="#fa759e"/>
    <path id="Path_144" data-name="Path 144" d="M27,57.96a14.814,14.814,0,0,1-5.689-1.133c-.423.037-.844.081-1.258.145a6.872,6.872,0,0,0,13.6-.039c-.32-.044-.645-.073-.97-.1A14.8,14.8,0,0,1,27,57.96Z" fill="#fff"/>
    <path id="Path_145" data-name="Path 145" d="M12.15,43.11V40.017a1.671,1.671,0,0,0-.874-.255c-1.222,0-2.213,1.4-2.213,3.124s.991,3.124,2.213,3.124a1.729,1.729,0,0,0,1.084-.417A14.928,14.928,0,0,1,12.15,43.11Z" fill="#fff"/>
    <path id="Path_146" data-name="Path 146" d="M40.042,48.648a5.108,5.108,0,0,1,.26-1.611h0V35.845a36.9,36.9,0,0,1-9.923-1.307,21.482,21.482,0,0,1-9.2-5.358,11.15,11.15,0,0,1-3.694,3.989A16.812,16.812,0,0,1,12.151,35V43.11A14.844,14.844,0,0,0,40.2,49.892a5.154,5.154,0,0,1-.16-1.244Z" fill="#fff"/>
    <path id="Path_147" data-name="Path 147" d="M65.364,17.183H58.637A18.335,18.335,0,0,0,40.3,35.518v11.52a2.829,2.829,0,0,1,2.45-2.215,2.04,2.04,0,0,1,1.069.312V39a20.579,20.579,0,0,0,6.523-2.246,13.65,13.65,0,0,0,4.522-4.884,26.3,26.3,0,0,0,11.269,6.559A47.562,47.562,0,0,0,80.18,40v5.139a2.04,2.04,0,0,1,1.069-.312,2.83,2.83,0,0,1,2.45,2.215V35.517A18.335,18.335,0,0,0,65.364,17.183Z" fill="#0089ef"/>
    <g transform="matrix(1, 0, 0, 1, -5.11, 16.18)" filter="url(#Path_148)">
      <path id="Path_148-2" data-name="Path 148" d="M68.968,65.713a18.172,18.172,0,0,1-13.936,0A23.367,23.367,0,0,0,33.706,88.988v15.829a2,2,0,0,0,2,2H88.294a2,2,0,0,0,2-2V88.988A23.367,23.367,0,0,0,68.968,65.713Z" transform="translate(5.11 -16.18)" fill="#6dc9f7"/>
    </g>
    <path id="Path_149" data-name="Path 149" d="M36.706,104.778V87.824a23.807,23.807,0,0,1,11.868-20.6A23.372,23.372,0,0,0,33.706,88.988v15.829a2,2,0,0,0,2,2h3.039a2.039,2.039,0,0,1-2.039-2.039Z" fill="#fff"/>
    <path id="Path_150" data-name="Path 150" d="M62,67.1a18.131,18.131,0,0,1-6.975-1.391,23.29,23.29,0,0,0-5.617,1.2,12.612,12.612,0,0,0,24.83-.12,23.334,23.334,0,0,0-5.271-1.079A18.126,18.126,0,0,1,62,67.1Z" fill="#0089ef"/>
    <path id="Path_151" data-name="Path 151" d="M62,67.1a18.111,18.111,0,0,1-6.964-1.388c-.518.045-1.033.1-1.54.177a8.413,8.413,0,0,0,16.644-.047c-.392-.054-.79-.089-1.188-.125A18.114,18.114,0,0,1,62,67.1Z" fill="#fff"/>
    <path id="Path_152" data-name="Path 152" d="M81.249,44.823a2.04,2.04,0,0,0-1.069.312v3.787a18.245,18.245,0,0,1-.258,3.041,2.126,2.126,0,0,0,1.328.51c1.5,0,2.709-1.713,2.709-3.825s-1.214-3.825-2.71-3.825Z" fill="#fff"/>
    <path id="Path_153" data-name="Path 153" d="M43.82,48.922V45.135a2.04,2.04,0,0,0-1.069-.312c-1.5,0-2.709,1.712-2.709,3.825s1.213,3.825,2.709,3.825a2.126,2.126,0,0,0,1.328-.51,18.245,18.245,0,0,1-.259-3.041Z" fill="#fff"/>
    <path id="Path_154" data-name="Path 154" d="M66.135,38.428a26.3,26.3,0,0,1-11.269-6.559,13.65,13.65,0,0,1-4.522,4.884A20.579,20.579,0,0,1,43.821,39v9.924a18.18,18.18,0,1,0,36.36,0V40a47.584,47.584,0,0,1-14.046-1.569Z" fill="#fff"/>
    <g id="Group_77" data-name="Group 77">
      <path id="Path_155" data-name="Path 155" d="M105.71,56.338a15.885,15.885,0,0,0,6.648-9.379,2.537,2.537,0,0,0,.366.051c1.8,0,3.213-1.812,3.213-4.124a5.274,5.274,0,0,0-.212-1.465v-9.26A16,16,0,0,0,99.747,16.183h-5.5a15.834,15.834,0,0,0-13.569,7.585,19.293,19.293,0,0,0-15.32-7.585H58.635a19.3,19.3,0,0,0-15.32,7.585,15.834,15.834,0,0,0-13.568-7.585H24.252A16,16,0,0,0,8.274,32.161v9.26a5.274,5.274,0,0,0-.212,1.465c0,2.312,1.411,4.124,3.213,4.124a2.4,2.4,0,0,0,.366-.051,15.885,15.885,0,0,0,6.648,9.379,20.094,20.094,0,0,0-15.4,19.5V88.769A2.637,2.637,0,0,0,5.52,91.4H32.7v13.415a3,3,0,0,0,3,3H88.293a3,3,0,0,0,3-3V91.4h27.185a2.637,2.637,0,0,0,2.634-2.634V75.838a20.093,20.093,0,0,0-15.4-19.5Zm-28.448,10.6A18.279,18.279,0,0,1,79.342,64a8.785,8.785,0,0,1,4.688,7.657,24.48,24.48,0,0,0-6.768-4.719Zm-37.3,4.724A8.8,8.8,0,0,1,44.655,64a18.147,18.147,0,0,1,2.082,2.941A24.459,24.459,0,0,0,39.966,71.662ZM19.291,58.128a7.816,7.816,0,0,0,7.556,5.689,7.92,7.92,0,0,0,7.568-5.737c.474.091.941.2,1.4.324a9.3,9.3,0,0,1-17.914.082C18.359,58.352,18.82,58.226,19.291,58.128Zm13.023-.091a5.853,5.853,0,0,1-11-.15,15.683,15.683,0,0,0,11,.15Zm3.411-1.715a16.023,16.023,0,0,0,4.356-4.3,3.338,3.338,0,0,0,2.67,1.454,2.8,2.8,0,0,0,.618-.076A19.216,19.216,0,0,0,51.9,65.2a24.164,24.164,0,0,0-3.306.966A20.141,20.141,0,0,0,35.725,56.322ZM43,51.432a.874.874,0,0,1-.253.041c-.809,0-1.709-1.16-1.709-2.825,0-1.719.923-2.855,1.779-2.805v3.079A19.071,19.071,0,0,0,43,51.432ZM54.9,66.726a18.939,18.939,0,0,0,13.988.074,7.459,7.459,0,0,1-7.08,5.248,7.358,7.358,0,0,1-7.1-5.3ZM62,66.1a17.2,17.2,0,0,1-17.18-17.18V39.831a20.691,20.691,0,0,0,6.033-2.218,13.852,13.852,0,0,0,4.214-4.151,28.652,28.652,0,0,0,10.777,5.923,47.174,47.174,0,0,0,13.335,1.642v7.9A17.2,17.2,0,0,1,62,66.1Zm-9.28.946a9.348,9.348,0,0,0,9.093,7,9.472,9.472,0,0,0,9.108-7.064q1.09.2,2.141.5a11.6,11.6,0,0,1-22.474.1q1.045-.316,2.132-.533Zm22.687-.887a24.264,24.264,0,0,0-3.306-.966,19.216,19.216,0,0,0,8.53-11.8,2.8,2.8,0,0,0,.618.076,3.338,3.338,0,0,0,2.67-1.454,16.008,16.008,0,0,0,4.356,4.3,20.157,20.157,0,0,0-12.868,9.841Zm7.552-17.513c0,1.665-.9,2.825-1.709,2.825A.863.863,0,0,1,81,51.432a19.23,19.23,0,0,0,.184-2.51v-3.08C82.035,45.79,82.959,46.933,82.959,48.648Zm19.362,9.374a5.854,5.854,0,0,1-11.006-.129,15.622,15.622,0,0,0,11.006.129Zm-13.029.111a7.817,7.817,0,0,0,7.555,5.684,7.921,7.921,0,0,0,7.568-5.738c.474.09.937.207,1.4.334a9.3,9.3,0,0,1-17.914.064C88.355,58.343,88.821,58.231,89.292,58.133ZM110.851,43.11a13.835,13.835,0,0,1-25.99,6.624,6.372,6.372,0,0,0,.1-1.085,6.2,6.2,0,0,0-.26-1.778V35.518c0-.03,0-.059,0-.089a15.126,15.126,0,0,0,3.294-1.4,11.385,11.385,0,0,0,3.383-3.274,23.723,23.723,0,0,0,8.717,4.739,38.333,38.333,0,0,0,10.763,1.351Zm1.883,1.9-.008,0a15.835,15.835,0,0,0,.125-1.9V40.776c.536.121,1.086.983,1.086,2.11,0,1.209-.633,2.113-1.2,2.124ZM94.253,18.183h5.5a13.994,13.994,0,0,1,13.978,13.978v6.818a2.623,2.623,0,0,0-.875-.2V35.819a1,1,0,0,0-1.052-1,38.149,38.149,0,0,1-11.131-1.24,20.76,20.76,0,0,1-8.75-5.068,1,1,0,0,0-1.633.208,10.2,10.2,0,0,1-3.316,3.588,12.393,12.393,0,0,1-2.4,1.057,19.18,19.18,0,0,0-2.638-7.761,13.865,13.865,0,0,1,12.319-7.422Zm-35.617,0h6.728A17.354,17.354,0,0,1,82.7,35.518v8.676a3.032,3.032,0,0,0-1.45-.371c-.023,0-.046.005-.069.006V40a1,1,0,0,0-.312-.725,1.022,1.022,0,0,0-.74-.273,46.938,46.938,0,0,1-13.7-1.527A25.615,25.615,0,0,1,55.609,31.2a1,1,0,0,0-1.632.209,12.725,12.725,0,0,1-4.144,4.483,19.7,19.7,0,0,1-6.159,2.117A1,1,0,0,0,42.82,39V43.83c-.023,0-.046-.006-.069-.006a3.035,3.035,0,0,0-1.45.371V35.519A17.355,17.355,0,0,1,58.636,18.183Zm-34.383,0h5.495a13.868,13.868,0,0,1,12.319,7.422,19.181,19.181,0,0,0-2.73,9.22,34.509,34.509,0,0,1-8.668-1.245,20.76,20.76,0,0,1-8.75-5.068,1,1,0,0,0-1.633.208,10.2,10.2,0,0,1-3.316,3.588A15.9,15.9,0,0,1,12,34.014a1,1,0,0,0-.854.989v3.774a2.647,2.647,0,0,0-.875.2V32.16A13.993,13.993,0,0,1,24.253,18.183ZM11.266,45.01c-.57-.011-1.2-.916-1.2-2.124,0-1.127.55-1.99,1.086-2.11V43.11a15.974,15.974,0,0,0,.112,1.814h0c0,.028.005.057.009.086Zm1.884-1.9V35.832a16.946,16.946,0,0,0,4.838-1.8,11.385,11.385,0,0,0,3.383-3.274A23.723,23.723,0,0,0,30.088,35.5,36.333,36.333,0,0,0,39.3,36.831V46.872a6.226,6.226,0,0,0-.259,1.776,6.372,6.372,0,0,0,.1,1.085A13.835,13.835,0,0,1,13.15,43.11ZM4.887,88.768V75.838A18,18,0,0,1,9.334,64a8.786,8.786,0,0,1,4.7,7.751V89.4H5.521A.634.634,0,0,1,4.887,88.768Zm11.15.634V71.747a10.8,10.8,0,0,0-5.243-9.241,18.114,18.114,0,0,1,5.221-3.36,11.294,11.294,0,0,0,21.695-.1A18.086,18.086,0,0,1,43.2,62.507a10.821,10.821,0,0,0-5.242,9.24v2.179a24.222,24.222,0,0,0-5.254,15.062V89.4H16.037Zm18.669,15.415V88.987a22.27,22.27,0,0,1,5.618-14.8,10.953,10.953,0,0,1,6.031,9.794v2.8a1,1,0,0,0,2,0v-2.8A12.947,12.947,0,0,0,41.77,72.7a22.422,22.422,0,0,1,6.924-4.443,13.61,13.61,0,0,0,26.275-.134A22.385,22.385,0,0,1,82.23,72.7,12.946,12.946,0,0,0,75.642,83.98v21.837H48.355V99.181a1,1,0,0,0-2,0v6.636H35.706a1,1,0,0,1-1-1Zm54.588,0a1,1,0,0,1-1,1H77.642V83.98a10.952,10.952,0,0,1,6.034-9.795,22.274,22.274,0,0,1,5.619,14.8v15.829ZM86.037,73.922V71.747a10.8,10.8,0,0,0-5.24-9.239,18.091,18.091,0,0,1,5.222-3.351,11.294,11.294,0,0,0,21.691-.113,18.094,18.094,0,0,1,5.51,3.473,10.812,10.812,0,0,0-5.259,9.23V89.4H91.294v-.415a24.221,24.221,0,0,0-5.257-15.065Zm33.075,14.846a.634.634,0,0,1-.634.634h-8.519V71.747a8.808,8.808,0,0,1,4.7-7.755,18,18,0,0,1,4.45,11.845Z" fill="#3a2c60"/>
      <path id="Path_156" data-name="Path 156" d="M47.355,96.734a1,1,0,0,0,1-1V90.777a1,1,0,0,0-2,0v4.957A1,1,0,0,0,47.355,96.734Z" fill="#3a2c60"/>
      <g id="Group_80" data-name="Group 80">
        <circle id="Ellipse_48" data-name="Ellipse 48" cx="1.818" cy="1.818" r="1.818" transform="translate(52.162 44.559)" fill="#3a2c60"/>
        <path id="Path_157" data-name="Path 157" d="M70.021,44.559a1.818,1.818,0,1,0,1.818,1.818A1.818,1.818,0,0,0,70.021,44.559Z" fill="#3a2c60"/>
        <path id="Path_158" data-name="Path 158" d="M62,55.469A3.071,3.071,0,0,0,65.067,52.4V51.19a1,1,0,0,0-2,0V52.4a1.067,1.067,0,0,1-2.134,0V51.19a1,1,0,0,0-2,0V52.4A3.071,3.071,0,0,0,62,55.469Z" fill="#3a2c60"/>
        <path id="Path_159" data-name="Path 159" d="M72.506,41.7l-3.56-.62A1,1,0,1,0,68.6,43.05l3.56.62a1.017,1.017,0,0,0,.172.015,1,1,0,0,0,.171-1.986Z" fill="#3a2c60"/>
        <path id="Path_160" data-name="Path 160" d="M55.053,41.079l-3.56.62a1,1,0,1,0,.342,1.971l3.56-.62a1,1,0,0,0-.342-1.971Z" fill="#3a2c60"/>
        <path id="Path_161" data-name="Path 161" d="M65.044,56.247a4.332,4.332,0,0,1-3.231,1.465,4.127,4.127,0,0,1-3.222-1.452,1,1,0,0,0-1.618,1.176,6.137,6.137,0,0,0,4.839,2.276,6.3,6.3,0,0,0,4.825-2.257,1,1,0,1,0-1.593-1.208Z" fill="#3a2c60"/>
      </g>
    </g>
  </g>
</svg>
