<svg xmlns="http://www.w3.org/2000/svg" xmlns:xlink="http://www.w3.org/1999/xlink" width="318.997" height="319.954" viewBox="0 0 318.997 319.954">
  <defs>
    <linearGradient id="linear-gradient" x1="0.454" y1="0.269" x2="0.731" y2="0.944" gradientUnits="objectBoundingBox">
      <stop offset="0" stop-color="#56e3f9" stop-opacity="0.051"/>
      <stop offset="0.198" stop-color="#71ecff" stop-opacity="0.18"/>
      <stop offset="0.5" stop-color="#32d0e9" stop-opacity="0.471"/>
      <stop offset="1" stop-color="#20bad2" stop-opacity="0.89"/>
    </linearGradient>
    <filter id="Union_3" x="0" y="0" width="318.997" height="319.954" filterUnits="userSpaceOnUse">
      <feOffset dy="14" input="SourceAlpha"/>
      <feGaussianBlur stdDeviation="14" result="blur"/>
      <feFlood flood-color="#20bad2" flood-opacity="0.49"/>
      <feComposite operator="in" in2="blur"/>
      <feComposite in="SourceGraphic"/>
    </filter>
  </defs>
  <g transform="matrix(1, 0, 0, 1, 0, 0)" filter="url(#Union_3)">
    <path id="Union_3-2" data-name="Union 3" d="M-13156.614-11695.4c-17.787-19.3-26.92-44.146-27.406-69.77q-.141-2.9-.142-5.831a117.535,117.535,0,0,1,95.909-115.522c34.468-7.9,70.9.068,97.383,24.759a102.615,102.615,0,0,1,8.267,8.664,117.116,117.116,0,0,1,33.438,82.1,117.5,117.5,0,0,1-117.5,117.5A117.25,117.25,0,0,1-13156.614-11695.4Z" transform="translate(13226.16 11917.46)" fill="url(#linear-gradient)"/>
  </g>
</svg>
