<svg id="rss" xmlns="http://www.w3.org/2000/svg" xmlns:xlink="http://www.w3.org/1999/xlink" width="131.383" height="131.383" viewBox="0 0 131.383 131.383">
  <defs>
    <linearGradient id="linear-gradient" x1="0.226" y1="-2.062" x2="2.46" y2="0.5" gradientUnits="objectBoundingBox">
      <stop offset="0" stop-color="#f92fb6" stop-opacity="0"/>
      <stop offset="1" stop-color="#ff9ad3"/>
    </linearGradient>
  </defs>
  <path id="Path_162" data-name="Path 162" d="M19.5,399a19.5,19.5,0,0,0,0-39,19.5,19.5,0,0,0,0,39Zm0,0" transform="translate(0 -267.621)" fill="url(#linear-gradient)"/>
  <path id="Path_163" data-name="Path 163" d="M62.1,261.344c0,1.3-.11,2.571-.2,3.849H85c.061-1.285.2-2.55.2-3.849C85.194,216.775,48.418,180,3.849,180c-1.3,0-2.564.134-3.849.2V203.29c1.278-.085,2.55-.2,3.849-.2C35.686,203.095,62.1,229.507,62.1,261.344Zm0,0" transform="translate(0 -133.811)" fill="url(#linear-gradient)"/>
  <path id="Path_164" data-name="Path 164" d="M3.849,0C2.549,0,1.29.156,0,.194v23.1c1.288-.048,2.55-.2,3.849-.2,57.3,0,104.439,47.135,104.439,104.439,0,1.3-.147,2.561-.2,3.849h23.1c.038-1.29.194-2.549.194-3.849C131.383,57.382,74,0,3.849,0Zm0,0" fill="url(#linear-gradient)"/>
</svg>
