<svg xmlns="http://www.w3.org/2000/svg" xmlns:xlink="http://www.w3.org/1999/xlink" width="352" height="181.688" viewBox="0 0 352 181.688">
  <defs>
    <style>
      .cls-1 {
        fill: url(#linear-gradient);
      }

      .cls-2 {
        fill: #3fa8f2;
        stroke: #3fa8f2;
      }

      .cls-3 {
        fill: #117ac4;
      }

      .cls-3, .cls-4 {
        stroke: #117ac4;
        stroke-width: 5px;
      }

      .cls-4 {
        fill: #1a84cf;
      }

      .cls-5 {
        stroke: none;
      }

      .cls-6 {
        fill: none;
      }

      .cls-7 {
        filter: url(#Path_115);
      }

      .cls-8 {
        filter: url(#Path_117);
      }

      .cls-9 {
        filter: url(#Rectangle_79);
      }
    </style>
    <linearGradient id="linear-gradient" x1="1" y1="0.598" x2="0.703" y2="-0.268" gradientUnits="objectBoundingBox">
      <stop offset="0" stop-color="#55b8fe" stop-opacity="0.22"/>
      <stop offset="0.473" stop-color="#34a7f8" stop-opacity="0.533"/>
      <stop offset="1" stop-color="#3fa8f2" stop-opacity="0"/>
    </linearGradient>
    <filter id="Rectangle_79" x="189" y="42.688" width="163" height="139" filterUnits="userSpaceOnUse">
      <feOffset dy="3" input="SourceAlpha"/>
      <feGaussianBlur stdDeviation="8" result="blur"/>
      <feFlood flood-color="#74c4ff" flood-opacity="0.8"/>
      <feComposite operator="in" in2="blur"/>
      <feComposite in="SourceGraphic"/>
    </filter>
    <filter id="Path_117" x="203.997" y="0" width="132.4" height="75.997" filterUnits="userSpaceOnUse">
      <feOffset dy="3" input="SourceAlpha"/>
      <feGaussianBlur stdDeviation="3" result="blur-2"/>
      <feFlood flood-opacity="0.161"/>
      <feComposite operator="in" in2="blur-2"/>
      <feComposite in="SourceGraphic"/>
    </filter>
    <filter id="Path_115" x="205.321" y="57.098" width="129.298" height="75.175" filterUnits="userSpaceOnUse">
      <feOffset dy="3" input="SourceAlpha"/>
      <feGaussianBlur stdDeviation="3" result="blur-3"/>
      <feFlood flood-opacity="0.161"/>
      <feComposite operator="in" in2="blur-3"/>
      <feComposite in="SourceGraphic"/>
    </filter>
  </defs>
  <g id="box" transform="translate(-133 -547.54)">
    <rect id="line_fast_1" class="cls-1" width="98" height="5" rx="2.5" transform="translate(133 671.228)"/>
    <rect id="line_fast_1-2" data-name="line_fast_1" class="cls-1" width="98" height="5" rx="2.5" transform="translate(171 644.228)"/>
    <rect id="line_fast_1-3" data-name="line_fast_1" class="cls-1" width="98" height="5" rx="2.5" transform="translate(200 660.228)"/>
    <rect id="line_fast_1-4" data-name="line_fast_1" class="cls-1" width="98" height="5" rx="2.5" transform="translate(139 620.228)"/>
    <rect id="line_fast_1-5" data-name="line_fast_1" class="cls-1" width="98" height="5" rx="2.5" transform="translate(215 628.228)"/>
    <rect id="line_fast_1-6" data-name="line_fast_1" class="cls-1" width="98" height="5" rx="2.5" transform="translate(173 687.228)"/>
    <g id="box-2" data-name="box" transform="translate(130 4)">
      <g class="cls-9" transform="matrix(1, 0, 0, 1, 3, 543.54)">
        <g id="Rectangle_79-2" data-name="Rectangle 79" class="cls-2" transform="translate(213 63.69)">
          <path class="cls-5" d="M0,0H115a0,0,0,0,1,0,0V86a5,5,0,0,1-5,5H5a5,5,0,0,1-5-5V0A0,0,0,0,1,0,0Z"/>
          <path class="cls-6" d="M1,.5H114a.5.5,0,0,1,.5.5V86a4.5,4.5,0,0,1-4.5,4.5H5A4.5,4.5,0,0,1,.5,86V1A.5.5,0,0,1,1,.5Z"/>
        </g>
      </g>
      <g class="cls-8" transform="matrix(1, 0, 0, 1, 3, 543.54)">
        <path id="Path_117-2" data-name="Path 117" class="cls-3" d="M215.88,682.066H318.325L265.7,630.129Z" transform="translate(2.98 -620.57)"/>
      </g>
      <g class="cls-7" transform="matrix(1, 0, 0, 1, 3, 543.54)">
        <path id="Path_115-2" data-name="Path 115" class="cls-4" d="M215.88,630.129h99.453l-51.09,51.09Z" transform="translate(4.25 -564.53)"/>
      </g>
    </g>
  </g>
</svg>
